<?xml version="1.0" encoding="UTF-8"?>
<svg version="1.1" viewBox="0 0 2048 2048" width="1280" height="1280" xmlns="http://www.w3.org/2000/svg">
<path transform="translate(0)" d="m0 0h2048v2048h-2048z" fill="#6C44FD"/>
<path transform="translate(182,434)" d="m0 0 189 2 33 2 27 4 25 6 27 9 20 9 18 10 13 9 11 9 17 17 13 18 10 15 13 24 10 22 10 28 9 35 11 52 6 36 4 31 4 52 3 58 2 63v183l-3 80-3 45-4 41-8 50-6 30-10 42-9 29-11 26-13 26-11 18-16 21-12 14-7 7-13 10-15 10-26 13-25 9-24 6-27 4-26 2-26 1-158 2h-23l-1-4-1-66-1-35-1-61v-783l1-169 1-59z" fill="#FEFEFE"/>
<path transform="translate(920,436)" d="m0 0h208l2 1 2 11 14 93 14 88 17 118 15 93 14 99 12 76 9 58 12 85 12 75 8 51 10 71 10 64 9 57 10 71 7 53 1 12-1 1h-160l-3-1-3-13-6-38-17-116-10-66-1-7-129 1-32 1-3 17-7 53-8 52-11 76-5 37-1 4-5 1-144-1-16-1 1-18 9-71 9-58 12-75 17-119 15-93 9-64 8-55 14-87 18-125 9-55 7-45 12-84 11-72 10-63 7-45 6-42z" fill="#FEFEFE"/>
<path transform="translate(1398,434)" d="m0 0 19 1 172 1 28 2 25 4 24 6 26 9 17 7 19 10 27 18 13 11 8 7 7 7 9 11 13 17 12 19 12 22 10 25 10 30 8 30 7 33 3 30 2 30 1 40-2 37-4 32-6 29-10 35-10 28-11 24-8 14-11 18-10 14-11 13-7 8-11 12-13 11-18 13-20 12-16 8-19 9-27 9-21 5-17 3-42 5h-3v469l-1 1-171 1-2-2-1-5-2-63-1-85v-963l1-55z" fill="#FEFEFE"/>
<path transform="translate(356,608)" d="m0 0 14 2 26 6 16 7 9 6 4 3v2h2l12 16 9 16 7 15 6 18 6 25 5 35 5 55 2 42 2 54 1 42v179l-3 81-3 42-5 42-5 33-7 28-8 21-11 21-8 10-9 9-13 8-15 6-23 7-11 2h-5z" fill="#6C44FD"/>
<path transform="translate(1574,612)" d="m0 0 13 1 29 5 18 6 14 9 13 13 9 14 7 14 7 21 5 25 5 42 1 19v21l-2 31-5 34-5 23-5 15-8 16-7 10-8 9-13 9-14 7-18 6-27 6h-9l-1-96v-255z" fill="#6C44FD"/>
<path transform="translate(1024,733)" d="m0 0 5 1 2 2 3 43 4 45 12 102 9 67 7 52 9 77 8 61 1 7-1 1h-115l-1-1 1-14 9-73 5-45 10-76 6-43 8-68 8-72 3-35 2-29z" fill="#6C44FD"/>
<path transform="translate(177,443)" d="m0 0h1v1e3l1 61v71l-2-3-2-7-2-46v-29l-1-54-1-169v-54l-1-119v-329l1-134v-83l2-76 2-27z" fill="#5E2CFD"/>
<path transform="translate(356,608)" d="m0 0 9 1 1 2h-2v3l-3 2-1 6v78l1 31 1 22 1 4-1 7v12l1 3-1 8 1 7v99l-1 42v40l-1 3 1 3v8h-2l1 2v69l-1 23v272l4 51 1 3v11l-1 10 5 1h7l6 3-3 3-11 3-12 1z" fill="#602FFD"/>
<path transform="translate(1394,474)" d="m0 0h1v655l-1 60h-2l-2-45v-61l-1-189 1-400 2-15z" fill="#5F2EFD"/>
<path transform="translate(1393,1284)" d="m0 0 2 4v249h-3l-2-18v-204l1-23z" fill="#5D2AFD"/>
<path transform="translate(1024,733)" d="m0 0 5 1 2 2 3 43 1 13v22l-3-2-2-7v-22l-3-9-2-16-3 5-2 30-4 22-1 2 1 4-1 3h-2v-16l4-44 2-29z" fill="#5F2DFD"/>
<path transform="translate(427,1410)" d="m0 0h2l-2 4-7 6-10 6-15 6-6 2h-5l2-4 4-1 14-6 8-5 8-4h2v-2z" fill="#5F2EFD"/>
<path transform="translate(474,804)" d="m0 0h1l1 9 1 1 1 44v21h-1l-1-8-1-1-2-29 1-16-1-20z" fill="#5D2AFE"/>
<path transform="translate(416,627)" d="m0 0 4 1 5 4v2h2l12 16 4 7-1 3-4-7-3-3-5-7-2-1v-2h-2l-10-10z" fill="#5F2DFD"/>
<path transform="translate(454,445)" d="m0 0 6 1v2l5-1 6 3 8 2v2l3-1v2l4 1v2l-9-2-21-7-4-1v-2z" fill="#6131FD"/>
<path transform="translate(475,1219)" d="m0 0h2v24l-2 2-2-17 1-8z" fill="#5F2DFD"/>
<path transform="translate(474,804)" d="m0 0h1l1 9 1 1v13h-2l-1-2-1-20z" fill="#6030FD"/>
<path transform="translate(1012,829)" d="m0 0 2 4-1 11-2 5h-1v-14h2z" fill="#602FFD"/>
</svg>
